<?xml version="1.0" encoding="UTF-8" standalone="no"?>
<!-- Created with Inkscape (http://www.inkscape.org/) -->

<svg
   width="32"
   height="31.999987"
   viewBox="0 0 32 31.999987"
   version="1.1"
   id="svg1"
   inkscape:version="1.3.2 (091e20ef0f, 2023-11-25, custom)"
   sodipodi:docname="keyboard-caps-enabled.svg"
   xml:space="preserve"
   xmlns:inkscape="http://www.inkscape.org/namespaces/inkscape"
   xmlns:sodipodi="http://sodipodi.sourceforge.net/DTD/sodipodi-0.dtd"
   xmlns="http://www.w3.org/2000/svg"
   xmlns:svg="http://www.w3.org/2000/svg"><sodipodi:namedview
     id="namedview1"
     pagecolor="#3a3a3a"
     bordercolor="#a6a6a6"
     borderopacity="1"
     inkscape:showpageshadow="0"
     inkscape:pageopacity="0"
     inkscape:pagecheckerboard="1"
     inkscape:deskcolor="#1a1a1a"
     inkscape:document-units="px"
     guidecolor="#91a666"
     guideopacity="0.6"
     guidehicolor="#a66966"
     guidehiopacity="0.49803922"
     inkscape:zoom="15.091689"
     inkscape:cx="17.194894"
     inkscape:cy="15.173914"
     inkscape:window-width="1440"
     inkscape:window-height="849"
     inkscape:window-x="-4"
     inkscape:window-y="-4"
     inkscape:window-maximized="1"
     inkscape:current-layer="layer1" /><defs
     id="defs1" /><g
     inkscape:label="Layer 1"
     inkscape:groupmode="layer"
     id="layer1"
     transform="translate(-698.70858,-619.29243)"><path
       d="m 709.26146,633.40283 v 14.88963 h 9.73287 v -14.88963 h 5.13029 v -0.0853 l -9.99672,-11.02515 -9.99672,11.02515 v 0.0853 z"
       id="text2"
       style="font-weight:600;font-size:28.8621px;line-height:1;font-family:'URW Gothic';-inkscape-font-specification:'URW Gothic, Semi-Bold';text-align:center;text-anchor:middle;fill:#ffffff;stroke-width:5.60446;stroke-linecap:round;stroke-linejoin:round;stroke-opacity:0.999877"
       aria-label="➡" /><path
       style="font-weight:bold;font-size:46.5124px;line-height:1;font-family:'Liberation Sans';-inkscape-font-specification:'Liberation Sans Bold';text-align:center;text-anchor:middle;fill:#ffffff;stroke-width:2.64863;stroke-linecap:round;stroke-linejoin:round;stroke-opacity:0.999877"
       d="m 723.50267,629.83883 c 0,-0.46399 0,-0.92797 0,-1.39198 0.7748,0 1.5496,0 2.32439,0 0,-2.13346 0,-4.26695 0,-6.40041 -0.75037,0.46843 -1.50075,0.93685 -2.25114,1.40528 0,-0.49062 0,-0.98125 0,-1.47189 0.79246,-0.50427 1.57517,-1.04146 2.37371,-1.52518 0.58298,0 1.16597,0 1.74894,0 0,2.66406 0,5.32814 0,7.9922 0.71709,0 1.43416,0 2.15124,0 0,0.46401 0,0.92799 0,1.39198 -2.11571,0 -4.23143,0 -6.34714,0 z"
       id="text1"
       aria-label="1" /></g></svg>
